<?xml version="1.0" encoding="utf-8"?>
<!-- Generator: Adobe Illustrator 22.0.1, SVG Export Plug-In . SVG Version: 6.00 Build 0)  -->
<svg version="1.2" baseProfile="tiny" xmlns="http://www.w3.org/2000/svg" xmlns:xlink="http://www.w3.org/1999/xlink" x="0px"
	 y="0px" viewBox="0 0 536 327" xml:space="preserve">
<g id="CMA_CGM">
</g>
<g id="ANL">
</g>
<g id="Calque_3">
	<g>
		<g>
			<g>
				<path fill="#FF0000" d="M57,45.3c0.9,0,1.8,0.1,2.7,0.1c58.4,0,116.8,0,175.2,0c1.4,0,2.7,0.1,4.1,0.3c1.7,0.3,3.2,1.2,4.2,2.7
					c2.5,3.7,0.7,6.3-0.1,9.2c-0.5,1.7-0.1,3.6,0.9,5c2.8,3.7,7.8,3.1,10-0.3c0.6-1,7.3-17.7,7.6-19.1c-3.6,0-7.1,0-10.7,0
					c-1.4,0-2.1,1.1-3.3,2.3c0.4-3.4,0.6-6.3,1.5-9c0.8-2.5,3.5-3,6.8-1.7c1.3,0.5,2.8,0.5,4-0.3c0.9-0.7,2,0,3-0.6
					c0.6-0.4,1.2-0.9,1-1.6c-0.2-0.7-0.9-0.4-1.4-0.4c-0.8-0.1-1.6,0-2.5,0c-1.9,0-2.2-0.5-1.2-2.2c0.7-1.3,1.8-2.1,3.3-2.1
					c3.4,0,6.9-0.1,10.3,0c2.4,0.1,4.2,1.7,4.8,4.3c1.8,9.1,3.6,18.1,5.4,27.2c0.9,4.5,4,6.7,7.8,5.5c3.2-1,4.8-4,4-7.5
					c-0.3-1.4-0.8-2.8-0.6-4.2c0.5-4.2,3.2-6.9,7.6-7.3c0.8-0.1,1.6-0.1,2.5-0.1c38.8,0,77.6,0,116.4,0c18.6,0,37.1-0.1,55.7-0.1
					c2.7,0,2.7,0.1,2.3,2.8c-1.1,7.3-6.5,12.5-13.9,13.2c-1.2,0.1-1.9,0.3-2.2,1.8c-1.6,6.7-5.5,10.1-12.4,11
					c-1.8,0.2-3.9-0.2-5.2,0.7c-1.2,0.8-1.3,3-2,4.5c-2.9,6.1-8.4,7.7-14.5,7.9c-1.9,0-2.8,0.5-3.5,2.3c-2.6,6.8-7.9,9.9-15,9.9
					c-36.3,0-72.5,0-108.8,0c-5.1,0-10-1.2-14.5-3.8c-0.3-0.2-0.6-0.3-0.9-0.5c-0.1,0-0.3,0-0.7,0.1c3.4,3.7,6.7,7.3,10,10.8
					c1.6,1.8,3.2,3.6,4.9,5.3c1.1,1,0.8,1.6-0.2,2.4c-3.4,2.7-7,2.7-11.1,0.8c0.8,1.5,1.4,2.8,2.2,4.1c0.4,0.6,0.2,1.4-0.5,1.8
					c-3.4,1.8-6.7,2-9.9-0.4c-0.3-0.2-0.7-0.4-1.1-0.6c-0.1,0-0.3,0-0.5,0.1c0.2,0.7,0.3,1.4,0.5,2c0.5,1.6-0.5,3.2-2.2,3.5
					c-4.3,0.8-6.7-0.6-9.1-5.4c-0.8,0.2-0.7,0.9-1,1.4c-2.1,3.9-6.3,5.4-10.3,3.5c-0.8-0.4-0.8-0.8-0.6-1.4c0.3-1.2,0.8-2.3,0.7-3.5
					c-0.9-0.2-1.3,0.4-1.7,0.8c-3.2,2.1-6.3,1.8-9.5,0.1c-0.8-0.4-0.9-0.8-0.5-1.6c0.8-1.3,1.4-2.6,2.3-4.2c-3.9,1.9-7.5,2-10.8-0.5
					c-1.2-0.9-1.5-1.6-0.3-2.9c4.7-4.9,9.4-10,14-15c0.2-0.2,0.4-0.5,0.6-0.8c-0.7-0.4-1.1,0.1-1.6,0.4c-4.6,2.6-9.7,3.7-15,3.7
					c-35.9,0-71.8,0-107.8,0c-8.3,0-12.9-3.1-15.9-10.8c-0.5-1.2-1.1-1.5-2.2-1.5c-1.7,0-3.4-0.1-5.1-0.4c-6-1-9.8-4.6-11.5-10.4
					c-0.4-1.5-1.1-1.9-2.5-1.9c-1.6,0-3.1-0.3-4.7-0.5c-6.2-1.1-10-4.7-11.4-10.9c-0.2-1-0.4-1.5-1.6-1.6c-7.6-0.6-13-5.6-14.2-11.9
					c0-0.2-0.2-0.3-0.4-0.5C57,47.8,57,46.5,57,45.3z"/>
			</g>
		</g>
		<g>
			<path fill="#051039" d="M104,299.2H75l51-124h37.7l51,124h-29.9l-8.2-21h-64.4L104,299.2z M121.3,254.2h46.2l-23.1-60.1
				L121.3,254.2z"/>
			<path fill="#051039" d="M346,213.1v11.6c0,31.7-11.4,38.5-48.1,38.5H253v36h-27v-124h71.7C334.6,175.2,346,181.8,346,213.1z
				 M319,216.6c0-13.2-1.2-17.4-17.8-17.4H253v41h48.2c16.6,0,17.8-4.1,17.8-17.2V216.6z"/>
			<path fill="#051039" d="M461,299.2h-94v-124h26v100h68V299.2z"/>
		</g>
	</g>
</g>
<g id="Calque_4">
</g>
<g id="Calque_4_-_copie" display="none">
</g>
<g id="Calque_6">
</g>
</svg>
