<?xml version="1.0" encoding="utf-8"?>
<!-- Generator: Adobe Illustrator 24.0.1, SVG Export Plug-In . SVG Version: 6.00 Build 0)  -->
<svg version="1.1" id="Layer_1" xmlns="http://www.w3.org/2000/svg" xmlns:xlink="http://www.w3.org/1999/xlink" x="0px" y="0px"
	 viewBox="0 0 530.1 200.9" width="144.801" height="45.113" style="enable-background:new 0 0 530.1 200.9;" xml:space="preserve">
<style type="text/css">
	.st0{fill:#1D2DA3;}
	.st1{fill:#E31B23;}
</style>
<path class="st0" d="M169.2,102.3c-4-5-8.6-9.6-13.8-13.8c-4.6-3.7-9.4-6.8-14.5-9.5c0.5-5.6,0.9-11.2,1.3-16.9c0-0.5-0.2-1-0.5-1.3
	c-10.3-9.7-22-18.3-34.6-25.6c-26.3-15.2-55-23.6-83.3-24.7c0-0.2,0.1-0.3,0.1-0.5V6c0-1-0.8-1.9-1.9-1.9H8.1C7,4.1,6.2,5,6.2,6v4.2
	c0,1,0.8,1.9,1.9,1.9h4v106.9l-5,4.3c-1.5,1.2-2.3,3-2.3,4.7c0,1.8,0.9,3.5,2.4,4.6l4.9,4.2v18.3l-4.7,3.3c-1.6,1.2-2.5,3-2.5,4.8
	c0,1.8,0.9,3.5,2.6,4.9l4.5,2.8v16.4l-4.2,3.2c-0.8,0.6-0.9,1.7-0.3,2.5c0.3,0.4,0.9,0.7,1.4,0.7c0.4,0,0.8-0.1,1.1-0.4l2-1.6v4.4
	h6.3v-9.3l4.7-3.6c1.6-1.2,2.5-3,2.5-4.8c0-1.8-0.9-3.5-2.6-4.9l-4.5-2.8v-15.8l4.9-3.5c1.6-1.2,2.5-3,2.5-4.8
	c0-1.8-0.9-3.5-2.4-4.7l-4.9-4.3v-19.5c1.3-1.1,2.9-2.7,4.2-4.5c26,1.9,52.3,10.1,76.3,23.9c6.2,3.6,12.3,7.7,18.2,12.1l-5.9,15.7
	c-1.6,5.8,0.3,11.9,4.6,14.9c4.1,2.8,9.2,2.3,13.7,1.9l1-0.1c6-0.5,10.1-0.7,15.1,1c2.8,0.9,7,2.5,10.7,5.3c0.3,0.2,0.7,0.3,1,0.3
	c0.2,0,0.4,0,0.6-0.1c0.6-0.2,1-0.7,1.1-1.3c7.8-42.2,10.6-83.4,10.6-83.8C169.6,103.1,169.5,102.6,169.2,102.3z M20.9,176.4
	c0.7,0.6,1.1,1.3,1.1,2c0,0.7-0.4,1.4-1.1,2l-2.5,1.9v-7.5L20.9,176.4z M12,166.7l-2.5-1.6c-0.7-0.6-1.1-1.3-1.1-2
	c0-0.7,0.4-1.4,1.1-2l2.6-1.8V166.7z M21.1,144.7c0.7,0.6,1.1,1.3,1.1,2c0,0.7-0.4,1.4-1.1,1.9l-2.8,2v-8.3L21.1,144.7z M9.4,129.9
	c-0.7-0.5-1.1-1.2-1.1-1.9c0-0.7,0.3-1.4,1-2l2.7-2.3v8.6L9.4,129.9z M18.3,19.4c7,16.8,10,36,8.8,56c-0.7,12.4-3.1,24.3-7,35.6
	c0,0-0.1,0.1-0.1,0.1c-0.5,0.8-1.1,1.6-1.8,2.3V19.4z M23.9,110.5c3.7-11.1,5.9-22.8,6.6-34.9c1.3-22.2-2.5-43.4-11-61.7
	c29.2,0.2,58.9,8.6,86,24.3c12.2,7.1,23.5,15.3,33.5,24.6c-1.1,16.7-2.7,33.5-4.9,49.9c-1.8,13.2-4,27-6.6,41
	c-2.2-1.9-4.5-3.7-6.9-5.5c-0.2-0.3-0.5-0.6-0.8-0.7c0,0-0.1,0-0.1,0c-6.2-4.6-12.6-8.9-19.1-12.7C76.4,120.9,50,112.5,23.9,110.5z
	 M156.1,184c-3.5-2.2-7-3.5-9.5-4.3c-6-2-10.9-1.6-16.4-1.1l-1,0.1c-4.1,0.4-8.4,0.7-11.4-1.3c-2.3-1.6-3.4-4.3-3.6-7
	c0.4-1.8,1.8-3.4,3.6-3.9c0.4-0.1,1-0.3,1.6-0.4c1.5-0.4,3.3-0.8,4.6-1.6c3.2-1.9,4.5-3.8,6.2-7.2c0.1-0.1,0.1-0.3,0.1-0.4
	c2.9-15,5.3-29.7,7.2-43.9c1.3-10,2.4-20.1,3.4-30.3c4.4,2.4,8.6,5.2,12.6,8.4c4.8,3.8,9.1,8.1,12.8,12.7
	C165.7,109.3,163,145.9,156.1,184z"/>
<polygon class="st1" points="114.1,89.1 90.1,93.2 72.1,109.5 68.1,85.5 51.8,67.5 75.7,63.5 93.7,47.2 97.8,71.1 "/>
<polygon class="st0" points="112.6,63.9 98.5,83.7 97.3,108 77.5,93.9 53.2,92.7 67.3,72.9 68.5,48.6 88.3,62.7 "/>
<g>
	<path class="st0" d="M214.5,69.2h22.7c9.4,0,16,6,16,14.5c0,4.7-2.2,8.5-5.8,10.5v0.2c4.8,2,7.9,6.7,7.9,12.7
		c0,11-6.7,16.6-20.1,16.6h-20.6V69.2z M235.7,91.3c5.1,0,7.8-2.3,7.8-6.7c0-4.4-2.6-6.7-7.8-6.7h-11.5v13.4H235.7z M236.2,114.8
		c6.5,0,9.2-2.5,9.2-7.9c0-5.1-2.9-7.6-9.2-7.6h-12.1v15.5H236.2z"/>
	<path class="st0" d="M260.2,103c0-13,8.1-21.8,20-21.8c12,0,20.1,8.8,20.1,21.8s-8.1,21.8-20.1,21.8
		C268.3,124.7,260.2,116,260.2,103z M290.9,103c0-8.2-4-13.2-10.7-13.2s-10.6,5-10.6,13.2s4,13.2,10.6,13.2S290.9,111.2,290.9,103z"
		/>
	<path class="st0" d="M306.9,82.4h8.8V86h0.2c1.7-2.6,4.7-4.4,8.7-4.4c1.9,0,3.5,0.2,5,0.7l-1.6,9.1c-1.7-0.5-3-0.7-4.4-0.7
		c-4.7,0-7.2,3.2-7.2,9.8v23.1h-9.3V82.4z"/>
	<path class="st0" d="M330.3,103c0-13,8.1-21.8,19.7-21.8c9.8,0,16.8,5.9,18.3,15.1l-8.9,1.7c-0.9-5.3-4.3-8.2-9.4-8.2
		c-6.3,0-10.3,5.1-10.3,13.2c0,8.2,4,13.2,10.3,13.2c5.2,0,8.5-3,9.4-8.2l8.9,1.7c-1.6,9.2-8.5,15.1-18.3,15.1
		C338.4,124.7,330.3,116,330.3,103z"/>
	<path class="st0" d="M374.5,66.8h9.3V86h0.2c2.3-3,6.5-4.8,11-4.8c9.2,0,15.4,6.2,15.4,15.4v27H401v-25c0-5.5-3.1-8.7-8.5-8.7
		s-8.7,3.4-8.7,8.7v25h-9.3V66.8z"/>
	<path class="st0" d="M454.9,82.4v41.2h-8.9v-3h-0.2c-2.4,2.6-6.2,4.1-10.6,4.1c-10.8,0-18.7-8.8-18.7-21.8s7.9-21.8,18.7-21.8
		c4.4,0,8.2,1.6,10.6,4.1h0.2v-3H454.9z M445.6,107.3v-8.6c0-5.1-3.8-8.9-9.4-8.9c-6.3,0-10.3,4.8-10.3,13.2s4,13.2,10.3,13.2
		C441.7,116.2,445.6,112.4,445.6,107.3z"/>
	<path class="st0" d="M463,82.4h8.8V86h0.2c1.7-2.6,4.7-4.4,8.7-4.4c1.9,0,3.5,0.2,5,0.7l-1.6,9.1c-1.7-0.5-3-0.7-4.4-0.7
		c-4.7,0-7.2,3.2-7.2,9.8v23.1H463V82.4z"/>
	<path class="st0" d="M486.4,103c0-12.7,7.7-21.8,18.5-21.8c4.5,0,8.4,1.6,11,4.2h0.2V66.8h9.3v56.7h-8.7v-3.8h-0.2
		c-2.4,3-6.7,5-11.7,5C494.1,124.7,486.4,115.7,486.4,103z M516.1,106.2v-6.6c0-5.6-4.2-9.9-9.9-9.9c-6.5,0-10.5,5-10.5,13.2
		c0,8.2,4,13.2,10.6,13.2C511.9,116.2,516.1,111.9,516.1,106.2z"/>
	<path class="st0" d="M214.5,134.5h9.7V180h23.6v8.9h-33.3V134.5z"/>
	<path class="st0" d="M253.8,147.7h9.3v41.2h-9.3V147.7z"/>
	<path class="st0" d="M271.3,147.7h8.9v3.7h0.2c2.4-3,6.9-4.8,11.3-4.8c9.2,0,15.4,6.2,15.4,15.9v26.4h-9.3v-25
		c0-5.5-3.1-8.7-8.5-8.7s-8.7,3.4-8.7,8.7v25h-9.3V147.7z"/>
	<path class="st0" d="M313.3,168.3c0-12.9,7.9-21.8,19.2-21.8c11.4,0,19,8.6,19,21.3v3.2h-28.8c0.3,6.5,4,11,9.9,11
		c4.6,0,7.7-1.9,10.8-6.8l6.8,5c-3.7,6.5-9.8,9.9-17.6,9.9C321.2,190.1,313.3,181.3,313.3,168.3z M342.3,164.2
		c-0.3-5.8-3.9-9.6-9.7-9.6c-5.4,0-9.5,4.1-9.8,9.6H342.3z"/>
	<path class="st0" d="M355.1,175.4l8.5-2.2c1.3,6.2,4.4,8.9,10.4,8.9c4.5,0,7.2-1.6,7.2-4.2c0-3.5-3.7-5-9.8-6.8
		c-7.9-2.3-14.2-4.8-14.2-12.4c0-7,6.5-12.2,15.2-12.2c8.2,0,15.1,4.8,16.9,12.1l-8.5,2.4c-1.4-4.4-4.4-6.6-8.4-6.6
		c-3.9,0-6.3,1.6-6.3,4.1c0,2.3,3,3.5,8.2,5c8.4,2.4,15.8,5.4,15.8,14c0,7.5-6.4,12.5-16.1,12.5
		C363.5,190.1,356.6,184.8,355.1,175.4z"/>
</g>
<path class="st0" d="M258.4,128.6c3.2,0,5.9,2.7,5.9,5.9c0,3.3-2.6,5.8-5.9,5.8c-3.2,0-5.8-2.6-5.8-5.8
	C252.6,131.3,255.3,128.6,258.4,128.6z"/>
</svg>
